<svg xmlns="http://www.w3.org/2000/svg" viewBox="0 0 612 792">
  <g id="HATCH-1">
    <path d="M80.6,379.27c.77,0,1.51.07,2.26.07q190.9,0,381.82.12c4.5,0,6.53-1.57,8.16-5.61,7.76-19.1,15.86-38.06,23.75-57.1,2.14-5.15,4.86-9.32,11.22-9.29,6.16,0,8.75,4,10.84,9.07q29.58,70.88,59.27,141.71c2.87,6.88.71,11.8-5.75,14.48-5.8,2.41-11.59-.17-14.31-6.67-3.14-7.48-6-15.07-9-22.61Q541.41,424.68,534,405.9c-1.19-3-3.05-4.37-6.53-4.32q-19.37.3-38.74,0c-3.84,0-5.66,1.39-7.08,5-7.32,18.53-14.9,37-22.49,55.39a33.92,33.92,0,0,1-4.15,7.51c-3.44,4.53-7.3,5.36-12.05,3.08s-7.61-7.07-5.76-12.06c4.39-11.87,9.31-23.55,14.05-35.29,3-7.46,6.1-14.89,9.48-23.14-2.78-.17-4.58-.37-6.37-.37q-185.82,0-371.63-.11c-5.16,0-6.69,1.42-6.53,6.61.39,13.25.35,26.51.08,39.76-.09,4.83,1.7,6.1,6.25,6.07,24.8-.16,49.61-.09,74.42-.08,2.38,0,4.76.05,7.13.21,4.94.32,7.72,3.28,8.64,7.87a9,9,0,0,1-6,10.5,22.35,22.35,0,0,1-7.41,1.38q-45.11.14-90.23.05c-9.91,0-14.36-4.45-14.37-14.27q0-69.07,0-138.15c0-10.34,3.77-14.08,14.11-14.09q45.62,0,91.25,0a19.19,19.19,0,0,1,6.49.77,10.16,10.16,0,0,1,6.22,11.09c-.74,4.31-4.91,7.85-9.9,7.92-10.19.15-20.39.09-30.58.1-16.66,0-33.31.11-50-.07-4.24-.05-6.09,1-6,5.65.23,13.69.12,27.39.1,41.69C76.38,376.06,79.3,379.21,80.6,379.27ZM508,342.65,493.09,378.9h29.73" /></g>
  <g id="HATCH-2" data-name="HATCH">
    <path d="M343.3,413.26c6.82,0,13.08-.15,19.32.14,1.19.05,3,1.65,3.36,2.88,5.91,18.76-2.71,39.29-19.79,49.38-27.26,16.09-65.77,12.64-87.6-8-4.43-4.19-7.47-9.9-10.9-15.07-2.45-3.69-2.22-7.43,1.27-10.51s7.87-4.25,12.22-2a14.57,14.57,0,0,1,5.94,5.31c7.18,13.09,19.39,18.24,32.95,20.21,12.25,1.79,24.41.29,35.1-7,10-6.8,13.55-17.3,9.9-28.9C344.51,418,344.1,416.21,343.3,413.26Z" /></g>
  <g id="HATCH-3" data-name="HATCH">
    <path d="M278.43,368.09c-6.74,0-12.34.43-17.84-.13-4.74-.49-6.19-4.93-7.28-8.79-4.47-15.85.64-30.9,13.84-41.07,17.73-13.65,57.59-18.72,78.73-2.48,8,6.13,15.11,13.08,18.95,22.75,1.83,4.6.13,8.6-3.67,10.38-2.88,1.36-7.22,1.25-10.28.11-2.71-1-5-4.07-6.7-6.71-13.76-21.07-44.95-20.11-60.94-10.8-10,5.81-13.14,18.74-7.72,30.52C276.22,363.38,276.93,364.89,278.43,368.09Z" /></g>
  <g id="HATCH-4" data-name="HATCH">
    <path d="M213.18,472.46c-8,0-15.06-7-15.1-14.86a15.09,15.09,0,0,1,30.18,0C228.25,465.39,221.08,472.48,213.18,472.46Z" /></g>
  <g id="HATCH-5" data-name="HATCH">
    <path d="M396.55,442.58a14.68,14.68,0,0,1,14.82,14.81,14.9,14.9,0,1,1-29.79-.14A14.78,14.78,0,0,1,396.55,442.58Z" /></g>

</svg>